HIERARCHY
ROOT hip
{
  OFFSET 0 0 0
  CHANNELS 6 Xposition Yposition Zposition Zrotation Yrotation Xrotation
  JOINT abdomen
  {
    OFFSET 0 20.6881 -0.73152
    CHANNELS 3 Zrotation Xrotation Yrotation
    JOINT chest
    {
      OFFSET 0 11.7043 -0.48768
      CHANNELS 3 Zrotation Xrotation Yrotation
      JOINT neck
      {
        OFFSET 0 22.1894 -2.19456
        CHANNELS 3 Zrotation Xrotation Yrotation
        JOINT head
        {
          OFFSET -0.24384 7.07133 1.2192
          CHANNELS 3 Zrotation Xrotation Yrotation
          JOINT leftEye
          {
            OFFSET 4.14528 8.04674 8.04672
            CHANNELS 3 Zrotation Xrotation Yrotation
            End Site
            {
              OFFSET 1 0 0
            }
          }
          JOINT rightEye
          {
            OFFSET -3.6576 8.04674 8.04672
            CHANNELS 3 Zrotation Xrotation Yrotation
            End Site
            {
              OFFSET 1 0 0
            }
          }
        }
      }
      JOINT rCollar
      {
        OFFSET -2.68224 19.2634 -4.8768
        CHANNELS 3 Zrotation Xrotation Yrotation
        JOINT rShldr
        {
          OFFSET -8.77824 -1.95073 1.46304
          CHANNELS 3 Zrotation Xrotation Yrotation
          JOINT rForeArm
          {
            OFFSET -28.1742 -1.7115 0.48768
            CHANNELS 3 Zrotation Xrotation Yrotation
            JOINT rHand
            {
              OFFSET -22.5879 0.773209 7.07136
              CHANNELS 3 Zrotation Xrotation Yrotation
              JOINT rThumb1
              {
                OFFSET -1.2192 -0.487915 3.41376
                CHANNELS 3 Zrotation Xrotation Yrotation
                JOINT rThumb2
                {
                  OFFSET -3.37035 -0.52449 3.41376
                  CHANNELS 3 Zrotation Xrotation Yrotation
                  End Site
                  {
                    OFFSET -1.78271 -1.18214 1.43049
                  }
                }
              }
              JOINT rIndex1
              {
                OFFSET -7.75947 0.938293 5.60832
                CHANNELS 3 Zrotation Xrotation Yrotation
                JOINT rIndex2
                {
                  OFFSET -2.54057 -0.884171 1.56538
                  CHANNELS 3 Zrotation Xrotation Yrotation
                  End Site
                  {
                    OFFSET -1.62519 -0.234802 1.16502
                  }
                }
              }
              JOINT rMid1
              {
                OFFSET -8.24714 1.18213 3.41376
                CHANNELS 3 Zrotation Xrotation Yrotation
                JOINT rMid2
                {
                  OFFSET -3.10165 -0.590103 1.0647
                  CHANNELS 3 Zrotation Xrotation Yrotation
                  End Site
                  {
                    OFFSET -2.48547 -0.328903 0.83742
                  }
                }
              }
              JOINT rRing1
              {
                OFFSET -8.82822 0.546677 1.51678
                CHANNELS 3 Zrotation Xrotation Yrotation
                JOINT rRing2
                {
                  OFFSET -2.60934 -0.819778 -0.0198488
                  CHANNELS 3 Zrotation Xrotation Yrotation
                  End Site
                  {
                    OFFSET -2.33842 -0.294052 0.168128
                  }
                }
              }
              JOINT rPinky1
              {
                OFFSET -8.27202 -0.0477905 -0.4584
                CHANNELS 3 Zrotation Xrotation Yrotation
                JOINT rPinky2
                {
                  OFFSET -1.82734 -0.647385 -0.700984
                  CHANNELS 3 Zrotation Xrotation Yrotation
                  End Site
                  {
                    OFFSET -1.69225 -0.51767 -0.607171
                  }
                }
              }
            }
          }
        }
      }
      JOINT lCollar
      {
        OFFSET 2.68224 19.2634 -4.8768
        CHANNELS 3 Zrotation Xrotation Yrotation
        JOINT lShldr
        {
          OFFSET 8.77824 -1.95073 1.46304
          CHANNELS 3 Zrotation Xrotation Yrotation
          JOINT lForeArm
          {
            OFFSET 28.1742 -1.7115 0.48768
            CHANNELS 3 Zrotation Xrotation Yrotation
            JOINT lHand
            {
              OFFSET 22.5879 0.773209 7.07136
              CHANNELS 3 Zrotation Xrotation Yrotation
              JOINT lThumb1
              {
                OFFSET 1.2192 -0.487915 3.41376
                CHANNELS 3 Zrotation Xrotation Yrotation
                JOINT lThumb2
                {
                  OFFSET 3.37035 -0.52449 3.41376
                  CHANNELS 3 Zrotation Xrotation Yrotation
                  End Site
                  {
                    OFFSET 1.78271 -1.18214 1.43049
                  }
                }
              }
              JOINT lIndex1
              {
                OFFSET 7.75947 0.938293 5.60832
                CHANNELS 3 Zrotation Xrotation Yrotation
                JOINT lIndex2
                {
                  OFFSET 2.54057 -0.884171 1.56538
                  CHANNELS 3 Zrotation Xrotation Yrotation
                  End Site
                  {
                    OFFSET 1.62519 -0.234802 1.16502
                  }
                }
              }
              JOINT lMid1
              {
                OFFSET 8.24714 1.18213 3.41376
                CHANNELS 3 Zrotation Xrotation Yrotation
                JOINT lMid2
                {
                  OFFSET 3.10165 -0.590103 1.0647
                  CHANNELS 3 Zrotation Xrotation Yrotation
                  End Site
                  {
                    OFFSET 2.48547 -0.328903 0.83742
                  }
                }
              }
              JOINT lRing1
              {
                OFFSET 8.82822 0.546677 1.51678
                CHANNELS 3 Zrotation Xrotation Yrotation
                JOINT lRing2
                {
                  OFFSET 2.60934 -0.819778 -0.0198488
                  CHANNELS 3 Zrotation Xrotation Yrotation
                  End Site
                  {
                    OFFSET 2.33842 -0.294052 0.168128
                  }
                }
              }
              JOINT lPinky1
              {
                OFFSET 8.27202 -0.0477905 -0.4584
                CHANNELS 3 Zrotation Xrotation Yrotation
                JOINT lPinky2
                {
                  OFFSET 1.82734 -0.647385 -0.700984
                  CHANNELS 3 Zrotation Xrotation Yrotation
                  End Site
                  {
                    OFFSET 1.69225 -0.51767 -0.607171
                  }
                }
              }
            }
          }
        }
      }
    }
  }
  JOINT rButtock
  {
    OFFSET -8.77824 4.35084 1.2192
    CHANNELS 3 Zrotation Xrotation Yrotation
    JOINT rThigh
    {
      OFFSET 0 -1.70687 -2.19456
      CHANNELS 3 Zrotation Xrotation Yrotation
      JOINT rShin
      {
        OFFSET 0 -36.8199 0.73152
        CHANNELS 3 Zrotation Xrotation Yrotation
        JOINT rFoot
        {
          OFFSET 0.73152 -45.1104 -5.12064
          CHANNELS 3 Zrotation Xrotation Yrotation
          End Site
          {
            OFFSET -1.1221 -3.69964 12.103
          }
        }
      }
    }
  }
  JOINT lButtock
  {
    OFFSET 8.77824 4.35084 1.2192
    CHANNELS 3 Zrotation Xrotation Yrotation
    JOINT lThigh
    {
      OFFSET 0 -1.70687 -2.19456
      CHANNELS 3 Zrotation Xrotation Yrotation
      JOINT lShin
      {
        OFFSET 0 -36.8199 0.73152
        CHANNELS 3 Zrotation Xrotation Yrotation
        JOINT lFoot
        {
          OFFSET -0.73152 -45.1104 -5.12064
          CHANNELS 3 Zrotation Xrotation Yrotation
          End Site
          {
            OFFSET 1.1221 -3.69964 12.103
          }
        }
      }
    }
  }
}
MOTION
Frames:	7
Frame Time:	0.00833333
140.597 85.1237 28.9654 0.0 0.0 0.0 0.435998 -0.0238412 0.012821 0.121281 -0.0396088 0.0210504 1.59717e-15 -1.59028e-15 5.59082e-17 4.76773e-15 -6.36111e-15 1.9102e-16 -0.0 0.0 0.0 -0.0 0.0 0.0 8.9238e-16 -1.49089e-16 2.98177e-16 1.75297e-14 -3.48494e-15 1.19271e-15 2.63141e-13 -2.08525e-13 3.49861e-14 3.24543e-12 -5.48919e-13 9.54166e-14 7.60812e-12 -1.64656e-12 3.08514e-13 1.31202e-11 -2.8466e-12 5.4467e-13 7.61266e-12 -1.64633e-12 2.95792e-13 7.73091 5.47488 0.417314 7.60858e-12 -1.64633e-12 3.11694e-13 2.90554 0.965183 0.102902 7.61416e-12 -1.64643e-12 3.1567e-13 10.2786 0.731801 0.0259123 7.60153e-12 -1.64514e-12 3.30778e-13 2.22167 -0.733487 -0.20892 6.97951e-16 -1.49089e-16 -2.48481e-16 1.46851e-14 -3.37313e-15 0.0 2.9927e-13 -3.99557e-14 -3.18055e-15 3.20255e-12 -7.19377e-13 1.62208e-13 7.59888e-12 -1.64832e-12 3.24417e-13 1.31349e-11 -2.84024e-12 5.51826e-13 7.59437e-12 -1.64832e-12 3.24417e-13 -7.73091 5.47488 -0.417314 7.59874e-12 -1.64822e-12 3.18055e-13 -2.90554 0.965183 -0.102902 7.59664e-12 -1.64842e-12 3.1567e-13 -10.2786 0.731801 -0.0259123 7.60769e-12 -1.64514e-12 3.02153e-13 -2.22167 -0.733487 0.20892 -2.03217e-16 0.0 -3.88251e-19 0.652213 -4.71094 -0.0694841 -0.000845505 2.99778 0.00380424 -0.326584 1.72337 0.0698165 2.03217e-16 0.0 3.88251e-19 0.03566 -2.68008 0.0230991 0.00577848 -0.680075 0.050396 0.293661 3.37035 -0.0963266
132.954 83.4041 18.4344 -120.708 -84.6496 132.419 2.61958 -0.668423 1.16943 -0.26789 -3.41503 0.268046 -2.26535 0.325549 -3.49413 0.720726 3.061 -6.72713 -0.0 0.0 0.0 -0.0 0.0 0.0 1.1075e-13 4.69432e-13 9.26581e-14 19.0674 12.6985 -1.9738 -5.10985 -2.53157 7.74025 0.0255246 -3.54532 -0.494823 -6.38858e-10 -2.74694e-10 3.64725e-10 -1.10732e-09 -4.74366e-10 6.25855e-10 -6.38854e-10 -2.74692e-10 3.64715e-10 7.73091 5.47488 0.417314 -6.38857e-10 -2.74694e-10 3.64727e-10 2.90554 0.965183 0.102902 -6.38851e-10 -2.74693e-10 3.6473e-10 10.2786 0.731801 0.0259123 -6.38862e-10 -2.74691e-10 3.64743e-10 2.22167 -0.733487 -0.20892 1.10542e-13 4.69432e-13 9.21452e-14 -20.5231 5.5228 3.63722 4.91861 -2.39387 -7.50251 -0.00367456 1.35868 -0.190763 -4.49874e-10 1.55884e-10 -3.11472e-10 -7.79219e-10 2.72108e-10 -5.36536e-10 -4.49879e-10 1.55875e-10 -3.1147e-10 -7.73091 5.47488 -0.417314 -4.49871e-10 1.55883e-10 -3.11478e-10 -2.90554 0.965183 -0.102902 -4.49878e-10 1.55883e-10 -3.11477e-10 -10.2786 0.731801 -0.0259123 -4.49865e-10 1.55887e-10 -3.11489e-10 -2.22167 -0.733487 0.20892 -2.03217e-16 0.0 -3.88251e-19 5.01407 -7.44267 7.02439 -0.00353326 3.92025 -0.0337772 0.407499 -2.5914 -8.17587 2.03217e-16 0.0 3.88251e-19 -0.303446 -2.45364 -9.91845 0.0159096 -0.957609 0.151117 -0.919395 -12.6111 -3.75138
132.857 83.3803 18.313 -119.633 -84.5494 131.384 4.95625 -1.34285 2.39149 -0.647735 -6.98491 0.531775 -4.61689 0.661935 -7.19042 2.25368 6.16113 -13.9038 -0.0 0.0 0.0 -0.0 0.0 0.0 2.32123e-13 9.77892e-13 1.94825e-13 40.2667 26.081 -4.39881 -9.78152 -5.059 15.9806 -0.0145888 -7.2967 -1.02487 -1.31925e-09 -5.60791e-10 7.28075e-10 -2.28645e-09 -9.68394e-10 1.24906e-09 -1.31925e-09 -5.60789e-10 7.28068e-10 7.73091 5.47488 0.417314 -1.31925e-09 -5.60791e-10 7.28076e-10 2.90554 0.965183 0.102902 -1.31924e-09 -5.60789e-10 7.28078e-10 10.2786 0.731801 0.0259123 -1.31925e-09 -5.60788e-10 7.28088e-10 2.22167 -0.733487 -0.20892 2.31899e-13 9.77894e-13 1.94343e-13 -42.991 11.2584 7.59723 9.42792 -4.77579 -15.4537 0.00237518 2.81739 -0.395939 -9.58942e-10 3.3483e-10 -6.23706e-10 -1.66079e-09 5.84388e-10 -1.0741e-09 -9.58947e-10 3.34812e-10 -6.23703e-10 -7.73091 5.47488 -0.417314 -9.58936e-10 3.34827e-10 -6.23713e-10 -2.90554 0.965183 -0.102902 -9.58948e-10 3.34828e-10 -6.23708e-10 -10.2786 0.731801 -0.0259123 -9.58932e-10 3.34832e-10 -6.23718e-10 -2.22167 -0.733487 0.20892 -2.03217e-16 0.0 -3.88251e-19 10.3597 -10.1144 14.6275 -0.00492153 4.89147 -0.0728739 -0.147525 -6.87192 -17.003 2.03217e-16 0.0 3.88251e-19 -0.582929 -2.15928 -20.4178 0.0278226 -1.2501 0.258994 -4.66789 -29.3297 -8.43822
132.74 83.3551 18.2113 -119.213 -84.4807 130.981 7.06481 -1.95439 3.48444 -0.95772 -10.1651 0.77274 -6.67766 0.962135 -10.4837 4.28974 8.67594 -20.3961 -0.0 0.0 0.0 -0.0 0.0 0.0 3.30466e-13 1.40859e-12 2.77378e-13 60.4151 37.8894 -7.32704 -13.3271 -7.0415 23.3847 -0.109846 -10.6328 -1.50752 -1.93179e-09 -8.20788e-10 1.09356e-09 -3.34819e-09 -1.4174e-09 1.87647e-09 -1.93179e-09 -8.20785e-10 1.09355e-09 7.73091 5.47488 0.417314 -1.93179e-09 -8.20788e-10 1.09356e-09 2.90554 0.965183 0.102902 -1.93178e-09 -8.20785e-10 1.09356e-09 10.2786 0.731801 0.0259123 -1.93179e-09 -8.20783e-10 1.09357e-09 2.22167 -0.733487 -0.20892 3.30231e-13 1.40859e-12 2.76933e-13 -63.7332 16.2959 11.3214 12.9181 -6.69014 -22.6505 0.0161763 4.07587 -0.573578 -1.36482e-09 4.70949e-10 -9.35063e-10 -2.36393e-09 8.22005e-10 -1.61071e-09 -1.36483e-09 4.70922e-10 -9.35058e-10 -7.73091 5.47488 -0.417314 -1.36481e-09 4.70945e-10 -9.35071e-10 -2.90554 0.965183 -0.102902 -1.36483e-09 4.70946e-10 -9.35063e-10 -10.2786 0.731801 -0.0259123 -1.36481e-09 4.7095e-10 -9.3507e-10 -2.22167 -0.733487 0.20892 -2.03217e-16 0.0 -3.88251e-19 15.7473 -12.1882 21.5422 -0.00526063 5.76518 -0.109245 -1.77482 -10.2598 -25.0697 2.03217e-16 0.0 3.88251e-19 -0.742068 -1.83335 -29.7907 0.0391002 -1.51266 0.352625 -11.3523 -43.6604 -14.9973
132.622 83.3305 18.1243 -120.384 -84.4468 132.188 8.54935 -2.41167 4.253 -1.15584 -12.3716 0.946684 -8.09271 1.18535 -12.7683 6.08718 10.2136 -24.9707 -0.0 0.0 0.0 -0.0 0.0 0.0 3.71233e-13 1.64489e-12 3.10899e-13 75.5588 45.9448 -10.2495 -15.4598 -8.19477 28.5401 -0.209663 -12.9337 -1.84955 -2.3747e-09 -1.01553e-09 1.46438e-09 -4.11643e-09 -1.75387e-09 2.5144e-09 -2.3747e-09 -1.01553e-09 1.46437e-09 7.73091 5.47488 0.417314 -2.3747e-09 -1.01553e-09 1.46438e-09 2.90554 0.965183 0.102902 -2.37469e-09 -1.01553e-09 1.46438e-09 10.2786 0.731801 0.0259123 -2.3747e-09 -1.01553e-09 1.46438e-09 2.22167 -0.733487 -0.20892 3.71004e-13 1.64489e-12 3.10502e-13 -78.6305 19.8449 14.0753 15.1164 -7.89152 -27.8286 0.0287452 4.83398 -0.681004 -1.51272e-09 4.99999e-10 -1.24423e-09 -2.62095e-09 8.7297e-10 -2.14495e-09 -1.51273e-09 4.9997e-10 -1.24422e-09 -7.73091 5.47488 -0.417314 -1.51271e-09 4.99995e-10 -1.24423e-09 -2.90554 0.965183 -0.102902 -1.51273e-09 4.99996e-10 -1.24422e-09 -10.2786 0.731801 -0.0259123 -1.51271e-09 5e-10 -1.24423e-09 -2.22167 -0.733487 0.20892 -2.03217e-16 0.0 -3.88251e-19 19.8405 -13.3972 26.4641 -0.00541437 6.39512 -0.138574 -3.56515 -12.3467 -30.8321 2.03217e-16 0.0 3.88251e-19 -0.759176 -1.5377 -36.3549 0.0466727 -1.70039 0.410585 -19.6473 -52.7196 -22.8526
132.504 83.2895 18.0298 -120.897 -84.4009 132.732 9.12976 -2.65517 4.56909 -1.2231 -13.2158 1.02069 -8.64647 1.31096 -13.6439 6.92912 10.7155 -26.7455 -0.0 0.0 0.0 -0.0 0.0 0.0 3.25888e-13 2.32088e-12 2.61933e-13 81.9463 48.9304 -11.8387 -16.1799 -8.54664 30.4535 -0.254968 -13.7948 -1.98001 -2.562e-09 -1.11163e-09 1.78931e-09 -4.44229e-09 -1.92019e-09 3.07497e-09 -2.562e-09 -1.11163e-09 1.78931e-09 7.73091 5.47488 0.417314 -2.562e-09 -1.11163e-09 1.78931e-09 2.90554 0.965183 0.102902 -2.56199e-09 -1.11163e-09 1.78931e-09 10.2786 0.731801 0.0259123 -2.562e-09 -1.11163e-09 1.78931e-09 2.22167 -0.733487 -0.20892 3.25694e-13 2.32088e-12 2.6161e-13 -84.6253 21.5061 15.2025 16.0263 -8.41145 -30.1136 0.0310313 4.89023 -0.689051 -1.26904e-09 3.0335e-10 -1.56021e-09 -2.20074e-09 5.3125e-10 -2.6932e-09 -1.26905e-09 3.03326e-10 -1.56021e-09 -7.73091 5.47488 -0.417314 -1.26904e-09 3.03348e-10 -1.56022e-09 -2.90554 0.965183 -0.102902 -1.26905e-09 3.03349e-10 -1.56021e-09 -10.2786 0.731801 -0.0259123 -1.26904e-09 3.03352e-10 -1.56022e-09 -2.22167 -0.733487 0.20892 -2.03217e-16 0.0 -3.88251e-19 21.5423 -13.7902 28.4668 -0.00628943 6.67652 -0.157365 -4.53357 -13.2579 -33.1332 2.03217e-16 0.0 3.88251e-19 -0.667399 -1.31495 -38.9994 0.0482937 -1.7832 0.420128 -24.804 -55.3796 -27.9972
132.378 83.2492 17.9416 -121.697 -84.3703 133.564 9.05842 -2.74664 4.56147 -1.20401 -13.0871 1.02113 -8.59405 1.36981 -13.5127 6.95423 10.5715 -26.4912 -0.0 0.0 0.0 -0.0 0.0 0.0 2.19299e-13 3.27703e-12 1.54707e-13 81.4328 48.3728 -11.9268 -16.0064 -8.42459 30.033 -0.247093 -13.6278 -1.95479 -2.56759e-09 -1.13762e-09 2.08401e-09 -4.45366e-09 -1.96559e-09 3.58465e-09 -2.56759e-09 -1.13761e-09 2.08401e-09 7.73091 5.47488 0.417314 -2.56759e-09 -1.13762e-09 2.08401e-09 2.90554 0.965183 0.102902 -2.56758e-09 -1.13762e-09 2.08401e-09 10.2786 0.731801 0.0259123 -2.56759e-09 -1.13761e-09 2.08401e-09 2.22167 -0.733487 -0.20892 2.19157e-13 3.27703e-12 1.54477e-13 -84.0714 21.8776 15.0808 16.1361 -8.54235 -30.3127 0.0253007 4.44524 -0.626044 -7.47113e-10 -5.09038e-11 -1.8806e-09 -1.2993e-09 -8.47027e-11 -3.25062e-09 -7.47117e-10 -5.0917e-11 -1.8806e-09 -7.73091 5.47488 -0.417314 -7.47106e-10 -5.09033e-11 -1.8806e-09 -2.90554 0.965183 -0.102902 -7.47118e-10 -5.09017e-11 -1.8806e-09 -10.2786 0.731801 -0.0259123 -7.47111e-10 -5.08989e-11 -1.8806e-09 -2.22167 -0.733487 0.20892 -2.03217e-16 0.0 -3.88251e-19 21.4134 -13.7119 28.3569 -0.00800365 6.7093 -0.168611 -4.67772 -13.5331 -32.9023 2.03217e-16 0.0 3.88251e-19 -0.52473 -1.14065 -38.8447 0.0454579 -1.79107 0.395005 -25.4124 -53.9827 -29.1667
